<svg width="202" height="155" viewBox="0 0 202 155" fill="none" xmlns="http://www.w3.org/2000/svg">
<g clip-path="url(#clip0)">
<rect x="-0.469727" width="202" height="156" rx="2" fill="#F2F5F7"/>
<rect x="0.0302734" y="0.5" width="201" height="155" rx="1.5" stroke="#C2D1D9"/>
</g>
<g clip-path="url(#clip1)">
<path d="M11.5303 11L189.308 144.725" stroke="#C2D1D9"/>
<path d="M189.308 11L11.5303 144.725" stroke="#C2D1D9"/>
</g>
<rect x="75.5303" y="58" width="48" height="40" rx="4" fill="#F2F5F7"/>
<path fill-rule="evenodd" clip-rule="evenodd" d="M120.707 58H78.3538C76.7944 58 75.5303 59.2792 75.5303 60.8571V95.1429C75.5303 96.7208 76.7944 98 78.3538 98H120.707C122.266 98 123.53 96.7208 123.53 95.1429V60.8571C123.53 59.2792 122.266 58 120.707 58ZM78.3538 95.1429V60.8571H120.707V95.1429H78.3538Z" fill="#C2D1D9"/>
<path fill-rule="evenodd" clip-rule="evenodd" d="M83.2949 69.7859C83.2949 72.7445 85.6652 75.143 88.589 75.143C91.5129 75.143 93.8832 72.7445 93.8832 69.7859C93.8832 66.8272 91.5129 64.4287 88.589 64.4287C85.6652 64.4287 83.2949 66.8272 83.2949 69.7859ZM91.0596 69.7859C91.0596 71.1666 89.9535 72.2859 88.589 72.2859C87.2246 72.2859 86.1185 71.1666 86.1185 69.7859C86.1185 68.4051 87.2246 67.2859 88.589 67.2859C89.9535 67.2859 91.0596 68.4051 91.0596 69.7859Z" fill="#C2D1D9"/>
<path d="M85.7006 91.8718C85.1469 92.4272 84.2531 92.4233 83.7041 91.863C83.1552 91.3027 83.159 90.3982 83.7127 89.8427L95.3241 78.1943L101.868 83.9545C102.457 84.4723 102.519 85.3746 102.007 85.9699C101.495 86.5652 100.604 86.628 100.015 86.1102L95.4496 82.0916L85.7006 91.8718Z" fill="#C2D1D9"/>
<path d="M96.2933 91.8673C95.742 92.4252 94.8481 92.4252 94.2967 91.8673C93.7454 91.3095 93.7453 90.405 94.2966 89.847L112.877 71.0435L123.05 80.0752C123.636 80.5955 123.694 81.4981 123.18 82.0912C122.665 82.6842 121.773 82.7432 121.187 82.2228L113.004 74.9566L96.2933 91.8673Z" fill="#C2D1D9"/>
<defs>
<clipPath id="clip0">
<rect width="202" height="156" fill="white" transform="translate(-0.469727)"/>
</clipPath>
<clipPath id="clip1">
<rect width="178" height="134" fill="white" transform="translate(11.5303 11)"/>
</clipPath>
</defs>
</svg>
