<svg id="katman_1" data-name="katman 1" xmlns="http://www.w3.org/2000/svg" xmlns:xlink="http://www.w3.org/1999/xlink" width="814.42" height="205.13" viewBox="0 0 814.42 205.13">
  <defs>
    <style>
      .cls-1 {
        fill: url(#linear-gradient);
      }

      .cls-2 {
        fill: #245faa;
        fill-rule: evenodd;
      }

      .cls-3 {
        fill: #353d40;
      }
    </style>
    <linearGradient id="linear-gradient" x1="74.01" y1="206.89" x2="74.01" y2="55.01" gradientTransform="matrix(1, 0, 0, -1, 0, 208)" gradientUnits="userSpaceOnUse">
      <stop offset="0" stop-color="#245faa"/>
      <stop offset="1" stop-color="#1a3967"/>
    </linearGradient>
  </defs>
  <g>
    <g>
      <path class="cls-1" d="M139.47,48.67l-.17.29-34.23,59.29L4.25,153,85.59,15.19h0a31.77,31.77,0,0,1,54.91,31.7h0l-.87,1.49Z" transform="translate(0.46 -1.11)"/>
      <path class="cls-2" d="M109.8,173.06a85.71,85.71,0,0,0-54.73,19.65l-.88.73a33.27,33.27,0,0,1-22.53,8.75c-18.34,0-32.12-13.79-32.12-32.13a33.13,33.13,0,0,1,12.2-25.72,151,151,0,0,1,196.11,0,33.14,33.14,0,0,1,12.21,25.72c0,18.34-13.79,32.13-32.13,32.13a33.27,33.27,0,0,1-22.53-8.75l-.88-.73A85.7,85.7,0,0,0,109.8,173.06Z" transform="translate(0.46 -1.11)"/>
    </g>
    <g>
      <path class="cls-3" d="M254,36.24h25.57V88.17c8.13-10.21,16.53-11.76,27.83-11.76,26.24,0,32.65,21,32.65,44.64v50.84H314.09V121.6c0-14.23-3.9-22.78-16.47-22.78-10.74,0-18.07,10-18.07,23v50.11H254Z" transform="translate(0.46 -1.11)"/>
      <path class="cls-3" d="M407.16,75.63c26.26,0,49.37,20.46,49.37,49.43,0,29.16-23.11,48.83-49.37,48.83-26.09,0-49.37-19.49-49.37-48.83C357.79,95.91,381.07,75.63,407.16,75.63Zm0,74.94c12.95,0,24-10.93,24-25.51,0-14.39-11-25.33-24-25.33-12.78,0-24,10.75-24,25.33C383.17,139.82,394.38,150.57,407.16,150.57Z" transform="translate(0.46 -1.11)"/>
      <path class="cls-3" d="M561,159.13s-.14,7,1.42,12H537.92c-1.5-3.24-1.39-11-1.39-11-7.83,10.93-17.25,13.75-29.93,13.75a32.1,32.1,0,0,1-27.8-17.11c-3.53-6.72-4.13-16.11-4.13-27.53V78.41h25.74v50.9c0,15.88,5.33,21.34,17.31,21.34,11.36,0,17.09-9.19,17.09-22.13l.76-50.11H561v80.72Z" transform="translate(0.46 -1.11)"/>
      <path class="cls-3" d="M600.05,143.1c3.41,9.57,9.4,11.44,15.72,11.44,6,0,11.74-4,11.74-8.76,0-4.53-1.67-7.67-8.93-10.16l-14-3.71c-24.81-5.76-24.41-22.7-24.41-26.89,0-18.59,16.2-29.26,37.41-29.26,9.09,0,27.23,1.65,35.54,22L631.55,106c-2.53-8.53-9.2-11.2-13.39-11.2-7.19,0-11.81,2.9-11.86,9.29,0,4,3.82,7,9.47,8.63l15.54,4c22.07,5.38,22.74,20.81,22.74,27,0,19.14-17.13,30.18-37.72,30.18-13.48,0-32-3.84-38-22.37Z" transform="translate(0.46 -1.11)"/>
      <path class="cls-3" d="M675.3,171.89V78.41h27.14v93.48Zm30.54-117a17,17,0,1,1-17-17A17,17,0,0,1,705.84,54.91Z" transform="translate(0.46 -1.11)"/>
      <path class="cls-3" d="M784.75,78.41l-17.57,55.23L747,78.41H716.73l36,85.64s-2.31,15.87-18.31,15.87h-4.42a13.16,13.16,0,1,0,0,26.32h9c33.08,0,44.73-42.19,44.73-42.19L814,78.41Z" transform="translate(0.46 -1.11)"/>
    </g>
  </g>
</svg>
