<svg width="314" height="569" viewBox="0 0 314 569" fill="none" xmlns="http://www.w3.org/2000/svg">
<g filter="url(#filter0_ddi)">
<path fill-rule="evenodd" clip-rule="evenodd" d="M70.0012 154.1C69.8814 131.11 78.7865 108.995 94.7932 92.5185C110.781 76.0617 132.575 66.5447 155.49 66.0053C167.006 65.8785 178.434 68.028 189.12 72.3315C199.831 76.6449 209.585 83.0372 217.82 91.1411C226.054 99.2452 232.607 108.901 237.101 119.553C241.594 130.204 243.939 141.641 243.999 153.205C244.059 164.768 241.834 176.229 237.452 186.927C233.07 197.626 226.617 207.349 218.467 215.539C210.317 223.728 200.631 230.222 189.965 234.647C179.555 238.966 168.412 241.232 157.149 241.321C156.928 241.309 156.706 241.301 156.483 241.299C133.534 241.019 111.61 231.727 95.4332 215.42C79.2559 199.111 70.1209 177.091 70.0012 154.1ZM171.42 279.219C171.393 274.168 175.15 269.936 180.098 268.919C187.394 267.419 194.548 265.225 201.462 262.357C215.785 256.414 228.791 247.694 239.732 236.7C250.673 225.706 259.332 212.655 265.213 198.299C271.094 183.942 274.079 168.564 273.998 153.049C273.918 137.533 270.772 122.187 264.742 107.892C258.712 93.5981 249.917 80.638 238.862 69.7588C227.807 58.8795 214.711 50.296 200.327 44.5033C185.943 38.7106 170.556 35.8234 155.052 36.0083C154.998 36.009 154.945 36.0099 154.892 36.0111C124.072 36.7083 94.7631 49.4959 73.2754 71.6143C51.7883 93.7321 39.8409 123.411 40.0016 154.257C40.1623 185.103 52.4181 214.655 74.1346 236.547C90.2979 252.841 110.74 263.922 132.846 268.678C137.706 269.724 141.391 273.875 141.417 278.846L142.622 510.078C142.665 518.362 149.415 525.043 157.7 525C165.984 524.957 172.664 518.206 172.621 509.922L172.424 472.127L236.528 471.793C244.812 471.749 251.492 464.999 251.449 456.715C251.406 448.43 244.655 441.75 236.371 441.793L172.268 442.128L171.943 379.737L236.047 379.403C244.331 379.36 251.011 372.609 250.968 364.325C250.925 356.041 244.174 349.36 235.89 349.403L171.787 349.738L171.42 279.219Z" fill="#F1F3F8"/>
</g>
<defs>
<filter id="filter0_ddi" x="0" y="0" width="314" height="569" filterUnits="userSpaceOnUse" color-interpolation-filters="sRGB">
<feFlood flood-opacity="0" result="BackgroundImageFix"/>
<feColorMatrix in="SourceAlpha" type="matrix" values="0 0 0 0 0 0 0 0 0 0 0 0 0 0 0 0 0 0 127 0"/>
<feOffset dy="2"/>
<feGaussianBlur stdDeviation="10"/>
<feColorMatrix type="matrix" values="0 0 0 0 0.882667 0 0 0 0 0.904 0 0 0 0 0.957333 0 0 0 1 0"/>
<feBlend mode="normal" in2="BackgroundImageFix" result="effect1_dropShadow"/>
<feColorMatrix in="SourceAlpha" type="matrix" values="0 0 0 0 0 0 0 0 0 0 0 0 0 0 0 0 0 0 127 0"/>
<feOffset dy="4"/>
<feGaussianBlur stdDeviation="20"/>
<feColorMatrix type="matrix" values="0 0 0 0 0.956667 0 0 0 0 0.966667 0 0 0 0 0.983333 0 0 0 1 0"/>
<feBlend mode="normal" in2="effect1_dropShadow" result="effect2_dropShadow"/>
<feBlend mode="normal" in="SourceGraphic" in2="effect2_dropShadow" result="shape"/>
<feColorMatrix in="SourceAlpha" type="matrix" values="0 0 0 0 0 0 0 0 0 0 0 0 0 0 0 0 0 0 127 0" result="hardAlpha"/>
<feOffset dy="4"/>
<feGaussianBlur stdDeviation="20"/>
<feComposite in2="hardAlpha" operator="arithmetic" k2="-1" k3="1"/>
<feColorMatrix type="matrix" values="0 0 0 0 0.882667 0 0 0 0 0.904 0 0 0 0 0.957333 0 0 0 1 0"/>
<feBlend mode="normal" in2="shape" result="effect3_innerShadow"/>
</filter>
</defs>
</svg>
