<svg width="126" height="36" viewBox="0 0 126 36" fill="none" xmlns="http://www.w3.org/2000/svg">
<g clip-path="url(#clip0)">
<path d="M23.9677 8.48596L23.9392 8.53701L18.1063 19.1181L1.85474 25.9724L14.7882 2.51064L14.7981 2.51667C16.3644 0.0543072 19.5097 -0.741476 21.9908 0.758796C24.4719 2.25907 25.3865 5.50974 24.1335 8.16159L24.143 8.16732L23.9956 8.43461L23.9677 8.48596Z" fill="url(#paint0_linear)"/>
<path d="M11.4388 30.0739C11.4388 31.4653 10.9809 32.7446 10.2145 33.7558C9.77961 34.3294 9.24541 34.8167 8.6391 35.1892C7.80023 35.7045 6.82334 36 5.78056 36C2.65562 36 0 33.6277 0 30.3548C0 28.6787 0.664413 27.1651 1.73245 26.0871C2.74989 25.0603 4.13363 24.4287 5.6582 24.4287C8.78314 24.4287 11.4388 26.801 11.4388 30.0739Z" fill="#155FB4"/>
<path d="M37.8 30.1492C37.8 33.4221 35.4517 35.8815 32.3268 35.8815C30.8511 35.8815 29.4939 35.2899 28.4866 34.3207C27.3607 33.2375 26.6686 31.6828 26.6686 29.9554C26.6686 26.6826 29.0169 24.2231 32.1418 24.2231C33.4991 24.2231 34.7448 24.7237 35.7197 25.5581C36.9894 26.6448 37.8 28.2979 37.8 30.1492Z" fill="#155FB4"/>
<path fill-rule="evenodd" clip-rule="evenodd" d="M1.73245 26.0871C0.664413 27.1651 0 28.6787 0 30.3548C0 33.6277 2.65562 36 5.78056 36C6.82334 36 7.80023 35.7045 8.6391 35.1892C9.24541 34.8167 9.77961 34.3294 10.2145 33.7558C10.4113 33.6009 10.6119 33.451 10.8162 33.3065C13.156 31.651 15.9766 30.6843 19.0127 30.6843C22.5549 30.6843 25.8037 32 28.3378 34.1904L28.3511 34.2019C28.3965 34.2412 28.4417 34.2808 28.4866 34.3207C27.3607 33.2375 26.6686 31.6828 26.6686 29.9554C26.6686 26.6826 29.0169 24.2231 32.1418 24.2231C33.4991 24.2231 34.7448 24.7237 35.7197 25.5581C31.2254 21.5326 25.3901 19.1016 19.0127 19.1016C12.7983 19.1016 7.09875 21.4099 2.65297 25.2526C2.33983 25.5232 2.03289 25.8015 1.73245 26.0871Z" fill="#155FB4"/>
</g>
<path d="M47.88 30.4413V12H51.1941V19.4292H58.8766V12H62.1907V30.4413H58.8766V22.6432H51.1941V30.4413H47.88Z" fill="#222222"/>
<path d="M76.2756 18.8496C77.6313 20.0615 78.3092 21.7475 78.3092 23.9078C78.3092 26.0681 77.6313 27.7629 76.2756 28.9923C74.9366 30.2042 73.3465 30.8101 71.5053 30.8101C69.6642 30.8101 68.0658 30.2042 66.71 28.9923C65.371 27.7629 64.7015 26.0681 64.7015 23.9078C64.7015 21.7475 65.371 20.0615 66.71 18.8496C68.0658 17.6202 69.6642 17.0055 71.5053 17.0055C73.3465 17.0055 74.9366 17.6202 76.2756 18.8496ZM68.9696 26.674C69.6893 27.3589 70.5346 27.7014 71.5053 27.7014C72.4761 27.7014 73.313 27.3589 74.016 26.674C74.7357 25.9715 75.0956 25.0494 75.0956 23.9078C75.0956 22.7662 74.7357 21.8529 74.016 21.1679C73.313 20.4654 72.4761 20.1142 71.5053 20.1142C70.5346 20.1142 69.6893 20.4654 68.9696 21.1679C68.2666 21.8529 67.9151 22.7662 67.9151 23.9078C67.9151 25.0494 68.2666 25.9715 68.9696 26.674Z" fill="#222222"/>
<path d="M80.7282 25.4885V17.3743H83.8916V24.7245C83.8916 26.7091 84.7369 27.7014 86.4274 27.7014C87.2977 27.7014 87.9923 27.3677 88.5112 26.7003C89.0468 26.0329 89.3146 25.1723 89.3146 24.1186V17.3743H92.478V30.4413H89.3146V28.3864C88.4777 30.0022 87.1555 30.8101 85.3478 30.8101C83.9921 30.8101 82.879 30.3447 82.0087 29.4138C81.155 28.483 80.7282 27.1745 80.7282 25.4885Z" fill="#222222"/>
<path d="M98.1068 20.5884C98.1068 21.3963 99.0859 22.011 101.044 22.4325C102.5 22.7486 103.555 23.2316 104.208 23.8814C104.877 24.5137 105.212 25.3743 105.212 26.4632C105.212 27.7278 104.768 28.7728 103.881 29.5982C102.994 30.4061 101.797 30.8101 100.291 30.8101C98.8516 30.8101 97.6549 30.4413 96.7008 29.7036C95.7635 28.966 95.0605 28.0263 94.5919 26.8847L97.1276 25.1987C97.4122 26.0593 97.8222 26.7442 98.3578 27.2536C98.9102 27.7629 99.5713 28.0176 100.341 28.0176C100.86 28.0176 101.312 27.8946 101.697 27.6487C102.099 27.3853 102.3 27.0252 102.3 26.5686C102.3 26.1471 102.09 25.8134 101.672 25.5675C101.253 25.3041 100.576 25.0757 99.6383 24.8825C96.7427 24.2854 95.2948 22.9243 95.2948 20.7991C95.2948 19.6224 95.7468 18.7003 96.6506 18.0329C97.5544 17.348 98.6507 17.0055 99.9395 17.0055C101.262 17.0055 102.316 17.2689 103.103 17.7958C103.906 18.3227 104.567 19.157 105.086 20.2986L102.802 21.7212C102.233 20.1932 101.295 19.4292 99.9897 19.4292C98.7344 19.4292 98.1068 19.8156 98.1068 20.5884Z" fill="#222222"/>
<path d="M107.697 30.4413V17.3743H110.861V30.4413H107.697ZM107.547 15.4775V12H111.011V15.4775H107.547Z" fill="#222222"/>
<path d="M114.225 35.7102L114.727 32.6279C115.095 32.8386 115.472 32.944 115.857 32.944C116.51 32.944 116.978 32.5313 117.263 31.7058L117.665 30.5467L112.543 17.3743H116.133L119.347 25.8573L122.41 17.3743H126L120.075 32.8123C119.64 33.9363 119.087 34.7442 118.418 35.236C117.765 35.7453 116.945 36 115.957 36C115.271 36 114.694 35.9034 114.225 35.7102Z" fill="#222222"/>
<defs>
<linearGradient id="paint0_linear" x1="13.2735" y1="0" x2="13.2735" y2="25.9724" gradientUnits="userSpaceOnUse">
<stop stop-color="#155FB4"/>
<stop offset="1" stop-color="#0D386A"/>
</linearGradient>
<clipPath id="clip0">
<rect width="37.8" height="36" fill="white"/>
</clipPath>
</defs>
</svg>
